<svg height="512pt" viewBox="-54 0 511 512" width="512pt" xmlns="http://www.w3.org/2000/svg"><path d="m244.414062 462.453125h-19.054687c-2.769531 0-5.015625-2.246094-5.015625-5.015625v-18.050781c0-2.769531 2.246094-5.011719 5.015625-5.011719h19.054687c2.769532 0 5.015626 2.242188 5.015626 5.011719v18.054687c0 2.769532-2.246094 5.011719-5.015626 5.011719zm0 0" fill="#0396fd"/><path d="m244.414062 462.453125h-9.527343v-28.078125h9.527343c2.769532 0 5.015626 2.242188 5.015626 5.011719v18.054687c0 2.769532-2.246094 5.011719-5.015626 5.011719zm0 0" fill="#0077f0"/><path d="m188.574219 465.101562c0 21.746094-17.628907 39.378907-39.375 39.378907-21.75 0-39.378907-17.632813-39.378907-39.378907 0-21.746093 17.628907-39.375 39.378907-39.375 21.746093 0 39.375 17.628907 39.375 39.375zm0 0" fill="#ff6b81"/><path d="m188.578125 465.101562c0 21.753907-17.632813 39.371094-39.382813 39.371094-10.109374 0-19.328124-3.808594-26.308593-10.078125 2.148437.363281 4.355469.550781 6.609375.550781 21.742187 0 39.375-17.621093 39.375-39.371093 0-11.632813-5.046875-22.085938-13.066406-29.292969 18.601562 3.148438 32.773437 19.332031 32.773437 38.820312zm0 0" fill="#ff435f"/><path d="m227.378906 298.515625h-156.363281c-3.171875 0-5.746094-2.570313-5.746094-5.746094v-38.445312c0-3.175781 2.574219-5.746094 5.746094-5.746094h156.363281c3.171875 0 5.746094 2.570313 5.746094 5.746094v38.445312c0 3.175781-2.574219 5.746094-5.746094 5.746094zm0 0" fill="#64dcfc"/><path d="m227.378906 373.425781h-156.363281c-3.171875 0-5.746094-2.570312-5.746094-5.746093v-38.445313c0-3.175781 2.574219-5.75 5.746094-5.75h156.363281c3.171875 0 5.746094 2.574219 5.746094 5.75v38.445313c0 3.175781-2.574219 5.746093-5.746094 5.746093zm0 0" fill="#64dcfc"/><path d="m227.378906 298.515625h-13.742187v-49.9375h13.742187c3.171875 0 5.746094 2.570313 5.746094 5.746094v38.445312c0 3.175781-2.574219 5.746094-5.746094 5.746094zm0 0" fill="#00d1fc"/><path d="m227.378906 373.425781h-13.742187v-49.9375h13.742187c3.171875 0 5.746094 2.570313 5.746094 5.746094v38.445313c0 3.175781-2.574219 5.746093-5.746094 5.746093zm0 0" fill="#00d1fc"/><path d="m148.238281 104.519531-68.867187 40.335938 68.867187 40.335937 65.910157-38.601562c1.324218-.777344 1.324218-2.6875 0-3.464844zm0 0" fill="#ffd86e"/><path d="m214.144531 146.589844-65.902343 38.605468-18.746094-10.984374 68.867187-40.324219 15.78125 9.238281c1.324219.777344 1.324219 2.6875 0 3.464844zm0 0" fill="#ffb509"/><path d="m240.507812 66.105469h-182.621093c-3.945313 0-7.140625-3.199219-7.140625-7.140625v-44.300782c0-3.945312 3.195312-7.140624 7.140625-7.140624h182.621093c3.945313 0 7.140626 3.195312 7.140626 7.140624v44.300782c0 3.941406-3.195313 7.140625-7.140626 7.140625zm0 0" fill="#0396fd"/><path d="m240.507812 66.105469h-17.511718v-58.582031h17.511718c3.945313 0 7.140626 3.195312 7.140626 7.140624v44.300782c0 3.941406-3.195313 7.140625-7.140626 7.140625zm0 0" fill="#0077f0"/><path d="m244.414062 213.113281h-19.054687c-2.769531 0-5.015625-2.242187-5.015625-5.011719v-18.054687c0-2.769531 2.246094-5.015625 5.015625-5.015625h19.054687c2.769532 0 5.015626 2.246094 5.015626 5.015625v18.054687c0 2.769532-2.246094 5.011719-5.015626 5.011719zm0 0" fill="#0396fd"/><path d="m244.414062 213.113281h-9.527343v-28.078125h9.527343c2.769532 0 5.015626 2.242188 5.015626 5.011719v18.054687c0 2.769532-2.246094 5.011719-5.015626 5.011719zm0 0" fill="#0077f0"/><path d="m156.71875 418.816406v-11.351562c0-6.914063-5.625-12.535156-12.535156-12.535156h-128.640625v-242.550782h60.664062c.339844 0 .671875-.03125.996094-.074218l64.472656 37.761718v50.988282h-70.660156c-7.3125 0-13.265625 5.953124-13.265625 13.269531v38.445312c0 7.316407 5.953125 13.269531 13.265625 13.269531h70.660156v9.925782h-70.660156c-7.3125 0-13.265625 5.953125-13.265625 13.269531v38.445313c0 7.316406 5.953125 13.269531 13.265625 13.269531h16.84375c4.152344 0 7.519531-3.367188 7.519531-7.519531 0-4.15625-3.367187-7.523438-7.519531-7.523438h-15.066406v-34.894531h152.808593v34.894531h-91.109374c-4.15625 0-7.523438 3.367188-7.523438 7.523438 0 4.152343 3.371094 7.519531 7.523438 7.519531h92.882812c7.316406 0 13.269531-5.953125 13.269531-13.269531v-38.445313c0-7.316406-5.953125-13.269531-13.269531-13.269531h-70.65625v-9.925782h70.65625c7.316406 0 13.269531-5.953124 13.269531-13.269531v-38.445312c0-7.316407-5.953125-13.269531-13.269531-13.269531h-70.65625v-52.113282l61.230469-35.863281c2.90625-1.703125 4.710937-4.855469 4.710937-8.222656 0-3.367188-1.804687-6.515625-4.710937-8.21875l-61.230469-35.863281v-27.144532h16.578125c4.15625 0 7.523437-3.367187 7.523437-7.523437 0-4.152344-3.367187-7.519531-7.523437-7.519531h-115.03125v-43.542969h181.863281v43.539062h-19.78125c-4.15625 0-7.523437 3.367188-7.523437 7.523438 0 4.152343 3.367187 7.519531 7.523437 7.519531h20.160156c8.085938 0 14.664063-6.574219 14.664063-14.660156v-44.300782c0-8.085937-6.578125-14.664062-14.664063-14.664062h-182.621093c-8.085938 0-14.664063 6.578125-14.664063 14.664062v44.300782c0 8.085937 6.578125 14.664062 14.664063 14.664062h83.789062v26.015625l-64.472656 37.761719c-.324219-.042969-.65625-.070312-.996094-.070312h-63.171875c-6.910156 0-12.535156 5.621093-12.535156 12.535156v247.566406c0 6.910156 5.625 12.535156 12.535156 12.535156h128.640625v8.84375c-22.292969 3.609375-39.375 22.988282-39.375 46.285156 0 25.859376 21.039063 46.898438 46.898438 46.898438s46.894531-21.039062 46.894531-46.898438c0-23.296874-17.078125-42.675781-39.375-46.285156zm68.882812-162.71875v34.898438h-152.808593v-34.898438zm-77.367187-142.859375 53.984375 31.617188-53.984375 31.617187-53.980469-31.617187zm.964844 383.71875c-17.566407 0-31.855469-14.289062-31.855469-31.855469 0-17.5625 14.289062-31.851562 31.855469-31.851562 17.5625 0 31.851562 14.289062 31.851562 31.851562 0 17.566407-14.289062 31.855469-31.851562 31.855469zm0 0"/><path d="m244.414062 177.511719h-19.054687c-6.914063 0-12.535156 5.625-12.535156 12.535156v18.054687c0 6.910157 5.621093 12.535157 12.535156 12.535157h19.054687c6.914063 0 12.535157-5.625 12.535157-12.535157v-18.054687c0-6.910156-5.621094-12.535156-12.535157-12.535156zm-2.507812 28.082031h-14.039062v-13.039062h14.039062zm0 0"/><path d="m275.503906 228.660156h34.765625c4.15625 0 7.523438-3.367187 7.523438-7.523437 0-4.152344-3.371094-7.519531-7.523438-7.519531h-34.765625c-4.15625 0-7.519531 3.367187-7.519531 7.519531 0 4.15625 3.363281 7.523437 7.519531 7.523437zm0 0"/><path d="m395.851562 213.617188h-66.628906c-4.15625 0-7.523437 3.367187-7.523437 7.519531 0 4.15625 3.367187 7.523437 7.523437 7.523437h66.628906c4.152344 0 7.519532-3.367187 7.519532-7.523437 0-4.152344-3.367188-7.519531-7.519532-7.519531zm0 0"/><path d="m275.503906 203.882812h14.808594c4.15625 0 7.523438-3.367187 7.523438-7.519531 0-4.15625-3.367188-7.523437-7.523438-7.523437h-14.808594c-4.15625 0-7.519531 3.367187-7.519531 7.523437 0 4.152344 3.363281 7.519531 7.519531 7.519531zm0 0"/><path d="m371.464844 203.882812h23.699218c4.152344 0 7.519532-3.367187 7.519532-7.519531 0-4.15625-3.367188-7.523437-7.519532-7.523437h-23.699218c-4.15625 0-7.523438 3.367187-7.523438 7.523437 0 4.152344 3.367188 7.519531 7.523438 7.519531zm0 0"/><path d="m308.421875 203.882812h44.296875c4.15625 0 7.523438-3.367187 7.523438-7.519531 0-4.15625-3.367188-7.523437-7.523438-7.523437h-44.296875c-4.15625 0-7.523437 3.367187-7.523437 7.523437 0 4.152344 3.371093 7.519531 7.523437 7.519531zm0 0"/><path d="m244.414062 426.851562h-19.054687c-6.914063 0-12.535156 5.625-12.535156 12.535157v18.054687c0 6.910156 5.621093 12.535156 12.535156 12.535156h19.054687c6.914063 0 12.535157-5.625 12.535157-12.535156v-18.054687c0-6.910157-5.621094-12.535157-12.535157-12.535157zm-2.507812 28.082032h-14.039062v-13.039063h14.039062zm0 0"/><path d="m310.269531 462.957031h-34.765625c-4.15625 0-7.519531 3.367188-7.519531 7.519531 0 4.15625 3.363281 7.523438 7.519531 7.523438h34.765625c4.15625 0 7.523438-3.367188 7.523438-7.523438 0-4.152343-3.367188-7.519531-7.523438-7.519531zm0 0"/><path d="m395.851562 462.957031h-66.628906c-4.15625 0-7.523437 3.367188-7.523437 7.519531 0 4.15625 3.367187 7.523438 7.523437 7.523438h66.628906c4.152344 0 7.519532-3.367188 7.519532-7.523438 0-4.152343-3.367188-7.519531-7.519532-7.519531zm0 0"/><path d="m275.503906 453.222656h14.808594c4.15625 0 7.523438-3.367187 7.523438-7.519531 0-4.15625-3.367188-7.523437-7.523438-7.523437h-14.808594c-4.15625 0-7.519531 3.367187-7.519531 7.523437 0 4.152344 3.363281 7.519531 7.519531 7.519531zm0 0"/><path d="m395.164062 438.179688h-23.699218c-4.15625 0-7.523438 3.367187-7.523438 7.523437 0 4.152344 3.367188 7.519531 7.523438 7.519531h23.699218c4.152344 0 7.519532-3.367187 7.519532-7.519531 0-4.15625-3.367188-7.523437-7.519532-7.523437zm0 0"/><path d="m308.421875 438.179688c-4.15625 0-7.523437 3.367187-7.523437 7.523437 0 4.152344 3.367187 7.519531 7.523437 7.519531h44.296875c4.15625 0 7.523438-3.367187 7.523438-7.519531 0-4.15625-3.367188-7.523437-7.523438-7.523437zm0 0"/></svg>